<svg width="774.9857482910156" height="159.4058603090359" viewBox="0 0 369.9130434782609 76.08695652173913" class="looka-1j8o68f"><defs id="SvgjsDefs1011"></defs><g id="SvgjsG1012" featurekey="Df7oLJ-0" transform="matrix(1.1205737085696517,0,0,1.1205737085696517,-19.912591039591184,-27.756606999578747)" fill="#41a4c3"><g xmlns="http://www.w3.org/2000/svg" fill="#41a4c3"><path d="M85.67 58.72a33.95 33.95 0 0 1-33.95 33.95 33.95 33.95 0 0 1-33.95-33.95 33.95 33.95 0 0 1 33.95-33.95 33.95 33.95 0 0 1 33.95 33.95M44.982 84.548a26.69 26.59 104.6 0 0 32.46-19.126 26.69 26.59 104.6 0 0-19.004-32.53 26.69 26.59 104.6 0 0-32.46 19.125 26.69 26.59 104.6 0 0 19.004 32.531"></path><path d="M55.16 41.47q7.7 2.65 7.31 10.34a.63.62 1.4 0 1-.63.59h-4.68q-.59 0-.59-.58v-1.9a2.52 2.5-71.6 0 0-.99-2l-.79-.59q-1.07-.81-1.07.53v7.15a.84.84 0 0 0 .58.8c5.63 1.84 9.5 5.2 8.17 11.77q-1.11 5.5-7.33 7.51-.46.15-.46.64v1.25q0 .87-.87.87h-4.22q-.75 0-.71-.75.05-.87-.04-1.47-.06-.41-1.04-.74-7.73-2.59-7.21-11.29.01-.16.17-.16h5.37q.32 0 .29.32-.38 3.67 2.51 5.56a.66.66 0 0 0 1.03-.55v-7.99q0-.5-.48-.61c-10.41-2.46-11.51-15.4-1.09-18.72q.51-.16.51-.71v-1.33a.78.78 0 0 1 .78-.78h4.27a.72.71 90 0 1 .71.72v1.43q0 .52.5.69m-5.2 12.67-.02-6.88a.13.13 0 0 0-.13-.13h-.1a3.44 2.53 89.8 0 0-2.52 3.44v.26a3.44 2.53 89.8 0 0 2.54 3.44h.1a.13.13 0 0 0 .13-.13m3.75 7.77-.06 7.3a.13.13 0 0 0 .13.13h.06a3.6 2.71-89.6 0 0 2.74-3.58v-.36a3.6 2.71-89.6 0 0-2.68-3.62h-.06a.13.13 0 0 0-.13.13"></path></g></g><g id="SvgjsG1013" featurekey="Ua4uQk-0" transform="matrix(3.088780096640934,0,0,3.088780096640934,92.29346226390125,-2.100250305867384)" fill="#58d5d3"><path d="M10.2 8.94 l-5.68 0 l0 2.66 l4.66 0 l0 2.74 l-4.66 0 l0 5.66 l-3.32 0 l0 -14 l9 0 l0 2.94 z M15.08 5.859999999999999 l0 14.14 l-3.16 0 l0 -14.14 l3.16 0 z M22.28 9.42 c2.36 0 5.48 1.78 5.48 5.42 c0 3.66 -3.12 5.36 -5.48 5.36 s-5.48 -1.7 -5.48 -5.36 c0 -3.64 3.12 -5.42 5.48 -5.42 z M22.28 12.2 c-1.2 0 -2.42 0.92 -2.42 2.64 c0 1.66 1.22 2.58 2.42 2.58 s2.44 -0.92 2.44 -2.58 c0 -1.72 -1.24 -2.64 -2.44 -2.64 z M43.9 9.56 l3.14 0 l-3.72 10.44 l-3.04 0 l-2.28 -6.5 l-2.28 6.5 l-3.04 0 l-3.72 -10.44 l3.14 0 l2.14 6.68 l2.38 -6.68 l2.76 0 l2.38 6.68 z M53.720000000000006 6 c3.14 0 5.22 1.9 5.22 4.82 c0 2.88 -2.08 4.6 -5.22 4.6 l-1.76 0 l0 4.58 l-3.22 0 l0 -14 l4.98 0 z M53.52000000000001 12.68 c1.3 0 2.2 -0.46 2.2 -1.86 c0 -1.38 -0.9 -1.86 -2.2 -1.86 l-1.56 0 l0 3.72 l1.56 0 z M63.82000000000001 5.859999999999999 l0 2.66 l-3.16 0 l0 -2.66 l3.16 0 z M63.82000000000001 9.6 l0 10.4 l-3.16 0 l0 -10.4 l3.16 0 z M69.02000000000001 5.859999999999999 l0 14.14 l-3.16 0 l0 -14.14 l3.16 0 z M76.22 9.42 c2.36 0 5.48 1.78 5.48 5.42 c0 3.66 -3.12 5.36 -5.48 5.36 s-5.48 -1.7 -5.48 -5.36 c0 -3.64 3.12 -5.42 5.48 -5.42 z M76.22 12.2 c-1.2 0 -2.42 0.92 -2.42 2.64 c0 1.66 1.22 2.58 2.42 2.58 s2.44 -0.92 2.44 -2.58 c0 -1.72 -1.24 -2.64 -2.44 -2.64 z M88.48 17.36 c0.56 0 0.96 -0.08 1.4 -0.2 l0 2.62 c-0.44 0.2 -1.16 0.34 -2.22 0.34 c-1.74 0 -3.2 -0.58 -3.2 -3.78 l0 -4.14 l-1.46 0 l0 -2.6 l1.46 0 l0 -2.44 l3.16 0 l0 2.44 l2.22 0 l0 2.6 l-2.22 0 l0 4.14 c0 0.46 0.12 1.02 0.86 1.02 z"></path></g></svg>